<svg width="18" height="18" viewBox="0 0 18 18" xmlns="http://www.w3.org/2000/svg" aria-hidden="true" focusable="false">
  <g fill="none" fill-rule="evenodd">
    <path d="M17.64 9.2045c0-.638-.0573-1.2518-.1636-1.8409H9v3.4818h4.8445c-.2091 1.1273-.8437 2.0827-1.7991 2.7227v2.261h2.9155c1.7059-1.57 2.6791-3.8845 2.6791-6.6246z" fill="#4285F4"/>
    <path d="M9 18c2.43 0 4.4673-.8055 5.9564-2.1718l-2.9155-2.261c-.8055.54-1.8373.86-3.0409.86-2.3391 0-4.3173-1.5827-5.0273-3.71H.9573v2.3328C2.4382 16.3419 5.4818 18 9 18z" fill="#34A853"/>
    <path d="M3.9727 10.7173C3.78273 10.1773 3.67455 9.60455 3.67455 9s.10818-1.17727.29818-1.71727V4.95H.95727C.347727 6.15727 0 7.54273 0 9s.347727 2.8427.95727 4.05l3.01543-2.3327z" fill="#FBBC05"/>
    <path d="M9 3.54545c1.3218 0 2.5118.45455 3.4455 1.34546L15.0355 2.3C13.46.84 11.4227 0 9 0 5.48182 0 2.43818 1.65818.957273 4.95L3.97273 7.28273C4.68273 5.15546 6.66091 3.54545 9 3.54545z" fill="#EA4335"/>
  </g>
</svg>
